<?xml version="1.0" standalone="no"?>
<!DOCTYPE svg PUBLIC "-//W3C//DTD SVG 20010904//EN"
 "http://www.w3.org/TR/2001/REC-SVG-20010904/DTD/svg10.dtd">
<svg version="1.0" xmlns="http://www.w3.org/2000/svg"
 width="300.000000pt" height="300.000000pt" viewBox="0 0 300.000000 300.000000"
 preserveAspectRatio="xMidYMid meet">
<metadata>
Created by potrace 1.14, written by Peter Selinger 2001-2017
</metadata>
<g transform="translate(0.000000,300.000000) scale(0.100000,-0.100000)"
fill="#000000" stroke="none">
<path d="M0 1500 l0 -1500 1343 1 c750 1 1317 5 1286 10 -382 56 -605 235
-691 554 -31 116 -31 385 0 496 59 217 201 382 416 484 71 34 84 44 68 49 -34
11 -163 100 -208 142 -94 91 -158 196 -190 315 -24 88 -24 306 0 404 30 125
89 229 175 315 120 118 261 183 466 214 79 12 -73 14 -1287 15 l-1378 1 0
-1500z"/>
<path d="M2785 2820 c-185 -25 -297 -127 -352 -321 -26 -93 -26 -415 0 -508
44 -156 114 -236 244 -282 61 -22 248 -37 297 -25 l26 6 0 564 0 563 -61 7
c-69 7 -69 7 -154 -4z"/>
<path d="M2770 1483 c-225 -26 -351 -121 -410 -311 -31 -101 -41 -182 -40
-355 0 -379 94 -552 335 -623 44 -13 97 -18 200 -18 l140 -1 3 651 2 651 -46
7 c-48 6 -122 6 -184 -1z"/>
</g>
</svg>
