<?xml version="1.0" encoding="utf-8"?>
<!-- Generator: Adobe Illustrator 25.4.1, SVG Export Plug-In . SVG Version: 6.00 Build 0)  -->
<svg version="1.1" id="Ebene_1" xmlns="http://www.w3.org/2000/svg" xmlns:xlink="http://www.w3.org/1999/xlink" x="0px" y="0px"
	 viewBox="0 0 778.9 62.1" style="enable-background:new 0 0 778.9 62.1;" xml:space="preserve">
<style type="text/css">
	.st0{fill:#FFFFFF;}
</style>
<path class="st0" d="M0,62.1l3.7-1.6h1.9l0.9-2.4l4.5-1.5h1.9l2.1-2.2l4.3-1h2.3l3-1.2c0,0,3.8-2.4,4-2.7s0.8-1.6,0.8-1.6l4.9-1.7
	l1.9-3.1l3.4-1.2l3.4-1.8h1.9l4.3-4.5l4.7-2.2h3.6l12.4-10.6l4.5-1.6l7.3-2l7.3-1.9h1.7c0,0,0.9-1.6,1.7-1.7c0.8-0.1,6-1.1,6-1.1
	l1.1-1.6l2.4,2.1l4.1,0.1c0,0,3,2.4,3.6,2.4s4.9,0.7,4.9,0.7l7,2.7l3.2-0.1l3.2-1l2.8-0.9l4.3-1.5l3-0.7c0,0,3.6-2.1,4.1-2.1
	c0.6,0,4.5-1.7,4.5-1.7l1.9-1.2l4.1-1.9l2.6-1.4h2.8l4.1-2.9h3h2.4l4.1,2l3,0.5l1.7,1.5l4,0.7l3,2.4l6.8,3.5l3.2,1l2.4,0.6l2.4,1.7
	l3,0.5l3.2,0.1l2.3,1l5.6,0.1l5.5-0.4l3,0.9l4.3,1.7l3,0.2l3.8,1.9l3.4,0.5l3,3.1v3.1l5.6,1.6l3.8,1.9l5.3,2.5l5.3,1.9h7l4.5,0.6
	l3.4,1.4l2.4,1.2l2.4,0.4l3.6-3.6l4-1.2l2.3-0.6l2.3,0.6l2.4-0.6l2.1-2.1l2.6-0.1l4.5-1.5l4-0.7l1.7-1.8l3.8-1.6l2.3,0.1l1.9-1.4
	l4.3-0.1l4.7-1l2.6,0.4l2.8-0.5l3-1.5l1.7,0.2l2.6,0.9l2.8,2.2l4.7,1.5l2.8,1.4l4.7-0.2l4.1-0.5l3,2l2.4,0.7l1.9,1.9l2.6,1.2
	l2.1,0.4l3-2l3.6-2.1h1.9l4.3-1.7l1.5-2c0,0,2.3-2.5,2.8-2.6c0.6-0.1,1.9-1.6,1.9-1.6l4.1-0.2l2.8-0.7l2.1-1.6l2.1-3l5.5-1.4
	l3.2-1.4l4.7,0.5h4.5l1.3,0.7l3.5-1.7l5.6-1.1l4-1.9l2.8-2.4l4.9,0.1l2.6,0.1l3.8-1.1l5.3,0.4l3.4-0.9l3.4-2.7l4.1-1.2l5.3-0.9
	l7.3,3.2l4.5,1.7l4,1.5l4.9,2.6l4.9,0.1l3.6-0.9l4.1-3.6l2.6-2.1l2.1,1.2l5.1-0.4l4.1-0.6l3.2,1.2l3.2-0.7h2.8l4.3-3.4h3.2h3.4h4.1
	c0,0,0.6-0.4,1.1-0.5c0.6-0.1,2.8-0.7,3.6-0.9c0.8-0.1,2.6-1.1,3.2-1.2c0.6-0.1,2.4-2,2.4-2s2.1-0.7,2.6-0.7c0.6,0,4.9,0,4.9,0
	l4,1.7c0,0,4.9,1.9,5.5,2.1c0.6,0.2,8.8,0.5,8.8,0.5l6.6,1.9L592,8.3l4.5,0.7l3.4,1.7l2.4,0.5l1.9,2.2l4.1,5c0,0,3.8,0.4,4.5,0.7
	c0.8,0.4,5.8,2,5.8,2l7.7,2.6l6.8,1l10.7,5.4l9.2,3.2l7.2,2.2l4.7,1.4l3.8-0.2l2.8,3.1h5.3l3.2,3.4l6,2.2l10.4,4.2l5.5,0.4l2.3,1.2
	c0,0,5.5-1.2,6-1.1c0.6,0.1,5.6,0.6,5.6,0.6l9-0.1L729,51l11.7,2.4l8.7,2.4c0,0,10.2-0.1,10.7,0c0.6,0.1,10.9,3.7,10.9,3.7l7.9,2.7
	H0z"/>
</svg>
