<?xml version="1.0" encoding="utf-8"?>
<!-- Generator: Adobe Illustrator 25.4.1, SVG Export Plug-In . SVG Version: 6.00 Build 0)  -->
<svg version="1.1" id="Ebene_1" xmlns="http://www.w3.org/2000/svg" xmlns:xlink="http://www.w3.org/1999/xlink" x="0px" y="0px"
	 viewBox="0 0 778.9 44.9" style="enable-background:new 0 0 778.9 44.9;" xml:space="preserve">
<style type="text/css">
	.st0{fill:#FFFFFF;}
</style>
<path class="st0" d="M0,44.9l3.7-1.2h1.9L6.5,42l4.5-1.1h1.9l2.1-1.6l4.3-0.7h2.3l3-0.9c0,0,3.8-1.7,4-2s0.8-1.2,0.8-1.2l4.9-1.2
	l1.9-2.2l3.4-0.9l3.4-1.3h1.9l4.3-3.3l4.7-1.6h3.6l12.4-7.7l4.5-1.2l7.3-1.4l7.3-1.4h1.7c0,0,0.9-1.2,1.7-1.2c0.8-0.1,6-0.8,6-0.8
	l1.1-1.2l2.4,1.5l4.1,0.1c0,0,3,1.7,3.6,1.7s4.9,0.5,4.9,0.5l7,2l3.2-0.1l3.2-0.7l2.8-0.7l4.3-1.1l3-0.5c0,0,3.6-1.5,4.1-1.5
	c0.6,0,4.5-1.2,4.5-1.2l1.9-0.9l4.1-1.4l2.6-1h2.8l4.1-2.1h3h2.4l4.1,1.4l3,0.4l1.7,1.1l4,0.5l3,1.7l6.8,2.5l3.2,0.7l2.4,0.4
	l2.4,1.2l3,0.4l3.2,0.1l2.3,0.7l5.6,0.1l5.5-0.3l3,0.7l4.3,1.2l3,0.1l3.8,1.4l3.4,0.4l3,2.2l1.2,1l4.4,2.4l3.8,1.4l5.3,1.8l5.3,1.4
	h7l4.5,0.4l3.4,1l2.4,0.9l2.4,0.3l3.6-2.6l4-0.9l2.3-0.4l2.3,0.4l2.4-0.4l2.1-1.5l2.6-0.1l4.5-1.1l4-0.5l1.7-1.3l3.8-1.2l2.3,0.1
	l1.9-1l4.3-0.1l4.7-0.7l2.6,0.3l2.8-0.4l3-1.1l1.7,0.1l2.6,0.7l2.8,1.6l4.7,1.1l2.8,1l4.7-0.1l4.1-0.4l3,1.4l2.4,0.5l1.9,1.4
	l2.6,0.9l2.1,0.3l3-1.4l3.6-1.5h1.9l4.3-1.2l1.5-1.4c0,0,2.3-1.8,2.8-1.9c0.6-0.1,1.9-1.2,1.9-1.2l4.1-0.1l2.8-0.5l2.1-1.2l2.1-2.2
	l5.5-1l3.2-1l4.7,0.4h4.5l1.3,0.5l3.5-1.2l5.6-0.8l4-1.4l2.8-1.7l4.9,0.1l2.6,0.1l3.8-0.8l5.3,0.3l3.4-0.7l3.4-2l4.1-0.9l5.3-0.7
	l7.3,2.3l4.5,1.2l4,1.1l4.9,1.9l4.9,0.1l3.6-0.7l4.1-2.6l2.6-1.5l2.1,0.9l5.1-0.3l4.1-0.4l3.2,0.9l3.2-0.5h2.8l4.3-2.5h3.2h3.4h4.1
	c0,0,0.6-0.3,1.1-0.4c0.6-0.1,2.8-0.5,3.6-0.7c0.8-0.1,2.6-0.8,3.2-0.9c0.6-0.1,2.4-1.4,2.4-1.4S550,0,550.5,0c0.6,0,4.9,0,4.9,0
	l4,1.2c0,0,4.9,1.4,5.5,1.5c0.6,0.1,8.8,0.4,8.8,0.4l6.6,1.4L592,5.9l4.5,0.5l3.4,1.2l2.4,0.4l1.9,1.6l4.1,3.6c0,0,3.8,0.3,4.5,0.5
	c0.8,0.3,5.8,1.4,5.8,1.4l7.7,1.9l6.8,0.7l10.7,3.9L653,24l7.2,1.6l4.7,1l3.8-0.1l2.8,2.2h5.3l3.2,2.5l6,1.6l10.4,3l5.5,0.3l2.3,0.9
	c0,0,5.5-0.9,6-0.8c0.6,0.1,5.6,0.4,5.6,0.4l9-0.1l4.2,0.3l11.7,1.7l8.7,1.7c0,0,10.2-0.1,10.7,0C760.7,40.4,771,43,771,43l7.9,2
	L0,44.9L0,44.9z"/>
</svg>
