<?xml version="1.0" encoding="utf-8"?>
<!-- Generator: Adobe Illustrator 25.4.1, SVG Export Plug-In . SVG Version: 6.00 Build 0)  -->
<svg version="1.1" id="Ebene_1" xmlns="http://www.w3.org/2000/svg" xmlns:xlink="http://www.w3.org/1999/xlink" x="0px" y="0px"
	 viewBox="0 0 778.9 74.7" style="enable-background:new 0 0 778.9 74.7;" xml:space="preserve">
<style type="text/css">
	.st0{fill:#FFFFFF;}
</style>
<path class="st0" d="M608.3,22c0,0,3.8,0.5,4.5,0.8c0.8,0.5,5.8,2.3,5.8,2.3l7.7,3.2l6.8,1.2l10.7,6.5l9.2,4l7.2,2.7l3.7,1.7
	l3.8-0.2l3.5,0.8l3.2-1.4l2.7,0.9l4.2-0.6l3.1,1.3l2.3,1.3l2.4,0.2l1.7-1.1l1.1,1.9l3.4,1.1l0.9,0.2c0,0,1.9,1.9,2.4,1.9
	c0.6,0,3.8-0.9,3.8-0.9s2.4,1.5,4.1,2.4c1.7,0.9,8.5,4,9,4.3c0.6,0.4,5.3,2.4,5.3,2.4s5.1-0.9,6.2-0.8c1.1,0.2,4.1,0.8,4.7,0.8
	s2.8-0.4,3.6-0.9c0.8-0.6,4.4-3,4.4-3l1.6-0.4c1.9,1.5,3.8,2.6,3.8,2.6l3.4-0.4l2.8,2.9l0.9,0.2l2.5-1.2l3.3,1.4l3.6,1.5l2.6,1.1
	l4,3.3l5.1,2l3.4,4.3l2.1,2.5H0l0,0l3.7-2h1.9l0.9-2.8l4.5-1.8h1.9l2.1-2.7l4.3-1.2h2.3l3-1.5c0,0,3.8-2.8,4-3.3s0.8-2,0.8-2l4.9-2
	l1.9-3.7l3.4-1.5l3.4-2.2h1.9l4.3-5.5l4.7-2.7h3.6l12.4-12.8l4.5-2l7.3-2.3l7.3-2.3h1.7c0,0,0.9-2,1.7-2c0.8-0.2,6-1.3,6-1.3l1.1-2
	l2.4,2.5l4.1,0.2c0,0,3,2.8,3.6,2.8s4.9,0.8,4.9,0.8l7,3.3l3.2-0.2l3.2-1.2l2.8-1.2l4.3-1.8l3-0.8c0,0,3.6-2.5,4.1-2.5
	c0.6,0,4.5-2,4.5-2l1.9-1.5l4.1-2.3l2.6-1.7h2.8l4.1-3.5h3h2.4l4.1,2.3l3,0.7l1.7,1.8l4,0.8l3,2.8l6.8,4.2l3.2,1.2l2.4,0.7l2.4,2
	l3,0.7l3.2,0.2l2.3,1.2l5.6,0.2l5.5-0.5l3,1.2l4.3,2l3,0.2l3.8,2.3l3.4,0.7l3,3.7l1.2,1.7l4.4,4l3.8,2.3l5.3,3l5.3,2.3h7l4.5,0.7
	l3.4,1.7l2.4,1.5l2.4,0.5l3.6-4.3l4-1.5l2.3-0.7l2.3,0.7l2.4-0.7l2.1-2.5l2.6-0.2l4.5-1.8l4-0.8l1.7-2.2l3.8-2l2.3,0.2l1.9-1.7
	l4.3-0.2l4.7-1.2l2.6,0.5l2.8-0.7l3-1.8l1.7,0.2l2.6,1.2l2.8,2.7l4.7,1.8l2.8,1.7l4.7-0.2l4.1-0.7l3,2.3l2.4,0.8l1.9,2.3l2.6,1.5
	l2.1,0.5l3-2.3l3.6-2.5h1.9l4.3-2l1.5-2.3c0,0,2.3-3,2.8-3.2c0.6-0.2,1.9-2,1.9-2l4.1-0.2l2.8-0.8l2.1-2l2.1-3.7l5.5-1.7L407,21
	l4.7,0.7h4.5l1.3,0.8l3.5-2l5.6-1.3l4-2.3l2.8-2.8l4.9,0.2l2.6,0.2l3.8-1.3l5.3,0.5l3.4-1.2l3.4-3.3l4.1-1.5l5.3-1.2l7.3,3.8l4.5,2
	l4,1.8l4.9,3.2l4.9,0.2l3.6-1.2l4.1-4.3l2.6-2.5l2.1,1.5l5.1-0.5l4.1-0.7l3.2,1.5l3.2-0.8h2.8l4.3-4.2h3.2h3.4h4.1
	c0,0,0.6-0.5,1.1-0.7c0.6-0.2,2.8-0.8,3.6-1.2c0.8-0.2,2.6-1.3,3.2-1.5c0.6-0.2,6.4-2.3,6.4-2.3s3-0.5,3.5-0.5c0.6,0,0,0,0,0l4,2
	c0,0,4.9,2.3,5.5,2.5c0.6,0.2,8.8,5.7,8.8,5.7l6.6,2.3l6.8,0.2l1.2,1.1l0.6,1l2.3,2.7l2.3,0.1l1.4,1.4l2.1,1.4l1.8-0.3l1.4,0.7
	l4-0.3l2.1-1.4L608.3,22z"/>
</svg>
