<?xml version="1.0" encoding="utf-8"?>
<!-- Generator: Adobe Illustrator 25.4.1, SVG Export Plug-In . SVG Version: 6.00 Build 0)  -->
<svg version="1.1" id="Ebene_1" xmlns="http://www.w3.org/2000/svg" xmlns:xlink="http://www.w3.org/1999/xlink" x="0px" y="0px"
	 viewBox="0 0 86 71.9" style="enable-background:new 0 0 86 71.9;" xml:space="preserve">
<style type="text/css">
	.st0{fill:none;stroke:#646464;stroke-miterlimit:10;}
	.st1{fill:none;stroke:#B3A280;stroke-miterlimit:10;}
</style>
<rect x="43" y="43" transform="matrix(-1 4.808453e-11 -4.808453e-11 -1 128.5591 100.2126)" class="st0" width="42.5" height="14.2"/>
<polygon class="st0" points="43,57.2 0.5,57.2 0.5,71.4 43,71.4 85.5,71.4 85.5,57.2 "/>
<rect x="43" y="0.5" transform="matrix(-1 4.812716e-11 -4.812716e-11 -1 128.5591 15.1732)" class="st1" width="42.5" height="14.2"/>
<rect x="43" y="14.7" transform="matrix(-1 4.812716e-11 -4.812716e-11 -1 128.5591 43.5197)" class="st1" width="42.5" height="14.2"/>
<rect x="0.5" y="14.7" transform="matrix(-1 4.812716e-11 -4.812716e-11 -1 43.5197 43.5197)" class="st1" width="42.5" height="14.2"/>
<rect x="43" y="28.8" transform="matrix(-1 4.812716e-11 -4.812716e-11 -1 128.5591 71.8661)" class="st1" width="42.5" height="14.2"/>
<rect x="0.5" y="28.8" transform="matrix(-1 4.812716e-11 -4.812716e-11 -1 43.5197 71.8661)" class="st1" width="42.5" height="14.2"/>
<rect x="0.5" y="43" transform="matrix(-1 4.808453e-11 -4.808453e-11 -1 43.5197 100.2126)" class="st1" width="42.5" height="14.2"/>
</svg>
