<?xml version="1.0" encoding="utf-8"?>
<!-- Generator: Adobe Illustrator 25.4.1, SVG Export Plug-In . SVG Version: 6.00 Build 0)  -->
<svg version="1.1" id="Ebene_1" xmlns="http://www.w3.org/2000/svg" xmlns:xlink="http://www.w3.org/1999/xlink" x="0px" y="0px"
	 viewBox="0 0 778.8 60.5" style="enable-background:new 0 0 778.8 60.5;" xml:space="preserve">
<style type="text/css">
	.st0{fill:#FFFFFF;}
</style>
<path class="st0" d="M608.3,17.7c0,0,3.8,0.4,4.5,0.6c0.8,0.4,5.8,1.9,5.8,1.9l7.7,2.6l6.8,1l10.7,5.3l9.2,3.2l7.2,2.2l3.7,1.4
	l3.8-0.2l3.5,0.6l3.2-1.1l2.7,0.7l4.2-0.5l3.1,1.1l2.3,1.1l2.4,0.2l1.7-0.9l1.1,1.5l3.4,0.9l0.9,0.2c0,0,1.9,1.5,2.4,1.5
	c0.6,0,3.8-0.7,3.8-0.7s2.4,1.2,4.1,1.9c1.7,0.7,8.5,3.2,9,3.5c0.6,0.3,5.3,1.9,5.3,1.9s5.1-0.7,6.2-0.6c1.1,0.2,4.1,0.6,4.7,0.6
	s2.8-0.3,3.6-0.7c0.8-0.5,4.4-2.4,4.4-2.4l1.6-0.3c1.9,1.2,3.8,2.1,3.8,2.1l3.4-0.3l2.8,2.3l0.9,0.2l2.5-1l3.3,1.1l3.6,1.2l2.6,0.9
	l4,2.7l5.1,1.6l3.4,3.5l2.1,2H0l0,0l3.7-1.6h1.9l0.9-2.3l4.5-1.5h1.9L15,53l4.3-1h2.3l3-1.2c0,0,3.8-2.3,4-2.7s0.8-1.6,0.8-1.6
	l4.9-1.6l1.9-3l3.4-1.2l3.4-1.8h1.9l4.3-4.5l4.7-2.2h3.6l12.4-10.4l4.5-1.6l7.3-1.9l7.3-1.9h1.7c0,0,0.9-1.6,1.7-1.6
	c0.8-0.2,6-1.1,6-1.1l1.1-1.6l2.4,2l4.1,0.2c0,0,3,2.3,3.6,2.3s4.9,0.6,4.9,0.6l7,2.7l3.2-0.2l3.2-1l2.8-1l4.3-1.5l3-0.6
	c0,0,3.6-2,4.1-2c0.6,0,4.5-1.6,4.5-1.6l1.9-1.2l4.1-1.9l2.6-1.4h2.8l4.1-2.8h3h2.4l4.1,1.9l3,0.6l1.7,1.5l4,0.6l3,2.3l6.8,3.4
	l3.2,1l2.4,0.6l2.4,1.6l3,0.6l3.2,0.2l2.3,1l5.6,0.2l5.5-0.4l3,1l4.3,1.6l3,0.2l3.8,1.9l3.4,0.6l3,3l1.2,1.4l4.4,3.2l3.8,1.9
	l5.3,2.4l5.3,1.9h7l4.5,0.6l3.4,1.4l2.4,1.2l2.4,0.4l3.6-3.5l4-1.2l2.3-0.6l2.3,0.6l2.4-0.6l2.1-2l2.6-0.2l4.5-1.5l4-0.6l1.7-1.8
	l3.8-1.6l2.3,0.2l1.9-1.4l4.3-0.2l4.7-1l2.6,0.4l2.8-0.6l3-1.5l1.7,0.2l2.6,1l2.8,2.2l4.7,1.5l2.8,1.4l4.7-0.2l4.1-0.6l3,1.9
	l2.4,0.6l1.9,1.9l2.6,1.2l2.1,0.4l3-1.9l3.6-2h1.9l4.3-1.6l1.5-1.9c0,0,2.3-2.4,2.8-2.6c0.6-0.2,1.9-1.6,1.9-1.6l4.1-0.2l2.8-0.6
	l2.1-1.6l2.1-3l5.5-1.4l3.2-1.4l4.7,0.6h4.5l1.3,0.6l3.5-1.6l5.6-1.1l4-1.9l2.8-2.3l4.9,0.2l2.6,0.2l3.8-1.1L450,11l3.4-1l3.4-2.7
	l4.1-1.2l5.3-1l7.3,3.1l4.5,1.6l4,1.5l4.9,2.6l4.9,0.2l3.6-1l4.1-3.5l2.6-2l2.1,1.2l5.1-0.4l4.1-0.6l3.2,1.2l3.2-0.6h2.8l4.3-3.4
	h3.2h3.4h4.1c0,0,0.6-0.4,1.1-0.6c0.6-0.2,2.8-0.6,3.6-1c0.8-0.2,2.6-1.1,3.2-1.2c0.6-0.2,6.4-1.9,6.4-1.9s3-0.4,3.5-0.4
	c0.6,0,0,0,0,0l4,1.6c0,0,4.9,1.9,5.5,2s8.8,4.6,8.8,4.6l6.6,1.9l6.8,0.2l1.2,0.9l0.6,0.8l2.3,2.2l2.3,0.1l1.4,1.1l2.1,1.1l1.8-0.2
	l1.4,0.6l4-0.2l2.1-1.1L608.3,17.7z"/>
</svg>
